/* XPM */
static char *XPM_icon[] = {
/* width height colors chars-per-pixel spot-x spot-y */
"21 13 8 1 11 6",
"  c None",
"s c #282a2e",
"S c #373b41",
"r c #a54242",
"b c #5f819d",
"B c #81a2be",
"w c #9098a0",
"W c #c1e4eb",
"  SSSSSSSSSSSSSSSS   ",
" bwwwwwwwwwwwwwwwwS  ",
" wS               w  ",
" w WWWWWWWWWWWWW  wS ",
" w WWWWWWWWWWWWW  Sw ",
" w WWWWWWWWWWWWW   w ",
" w WWWWWWWWWWWWW   w ",
" w WWWWWWWWWWWWW  Sw ",
" w WWWWWWWWWWWWW  wS ",
" wS               w  ",
" bwwwwwwwwwwwwwwwwS  ",
"                     ",
"                     ",
};
