/* XPM */
static char *XPM_icon[] = {
/* width height colors chars-per-pixel spot-x spot-y */
"21 13 17 1 11 6",
"  c None",
"s c #282a2e",
"S c #373b41",
"r c #a54242",
"R c #cc6666",
"g c #8c9440",
"G c #b5bd68",
"y c #de935f",
"Y c #f0c674",
"b c #5f819d",
"B c #81a2be",
"m c #85678f",
"M c #b294bb",
"c c #5e8d87",
"C c #8abeb7",
"w c #9098a0",
"W c #c1e4eb",
"  SSSSSSSSSSSSSSSS   ",
" bwwwwwwwwwwwwwwwwS  ",
" wS               w  ",
" w wwwww          wS ",
" w wwwww          Sw ",
" w wwwww           w ",
" w wwwww           w ",
" w wwwww          Sw ",
" w wwwww          wS ",
" wS               w  ",
" bwwwwwwwwwwwwwwwwS  ",
"                     ",
"                     ",
};
