/* XPM */
static char *XPM_icon[] = {
/* width height colors chars-per-pixel spot-x spot-y */
"21 13 8 1 11 6",
"  c None",
"s c #282a2e",
"S c #373b41",
"r c #a54242",
"b c #5f819d",
"B c #81a2be",
"w c #9098a0",
"W c #c1e4eb",
"  SSSSSSSSSSSSSSSS   ",
" bwwwwwwwwwwwwwwwwS  ",
" wS               w  ",
" w wWwWw          wS ",
" w wWwWw          Sw ",
" w WwWwW           w ",
" w WwWwW           w ",
" w wWwWw          Sw ",
" w wWwWw          wS ",
" wS               w  ",
" bwwwwwwwwwwwwwwwwS  ",
"                     ",
"                     ",
};
